<svg xmlns="http://www.w3.org/2000/svg" version="1.1" xmlns:xlink="http://www.w3.org/1999/xlink" xmlns:svgjs="http://svgjs.com/svgjs" width="1440" height="700" preserveAspectRatio="none" viewBox="0 0 1440 700"><g mask="url(&quot;#SvgjsMask1018&quot;)" fill="none"><rect width="1440" height="700" x="0" y="0" fill="rgba(211, 74, 4, 1)"></rect><path d="M85 700L785 0L1299.5 0L599.5 700z" fill="url(#SvgjsLinearGradient1019)"></path><path d="M552.2 700L1252.2 0L1684.2 0L984.2 700z" fill="url(#SvgjsLinearGradient1019)"></path><path d="M1360 700L660 0L462 0L1162 700z" fill="url(#SvgjsLinearGradient1020)"></path><path d="M947.8 700L247.79999999999995 0L-128.70000000000005 0L571.3 700z" fill="url(#SvgjsLinearGradient1020)"></path><path d="M969.0061571903921 700L1440 229.00615719039206L1440 700z" fill="url(#SvgjsLinearGradient1019)"></path><path d="M0 700L470.99384280960794 700L 0 229.00615719039206z" fill="url(#SvgjsLinearGradient1020)"></path></g><defs><mask id="SvgjsMask1018"><rect width="1440" height="700" fill="#ffffff"></rect></mask><linearGradient x1="0%" y1="100%" x2="100%" y2="0%" id="SvgjsLinearGradient1019"><stop stop-color="rgba(252, 108, 3, 1)" offset="0"></stop><stop stop-opacity="0" stop-color="rgba(252, 108, 3, 1)" offset="0.66"></stop></linearGradient><linearGradient x1="100%" y1="100%" x2="0%" y2="0%" id="SvgjsLinearGradient1020"><stop stop-color="rgba(252, 108, 3, 1)" offset="0"></stop><stop stop-opacity="0" stop-color="rgba(252, 108, 3, 1)" offset="0.66"></stop></linearGradient></defs></svg>