<svg xmlns="http://www.w3.org/2000/svg" version="1.1" xmlns:xlink="http://www.w3.org/1999/xlink" xmlns:svgjs="http://svgjs.com/svgjs" width="1440" height="700" preserveAspectRatio="none" viewBox="0 0 1440 700"><g mask="url(&quot;#SvgjsMask1009&quot;)" fill="none"><rect width="1440" height="700" x="0" y="0" fill="rgba(252, 108, 3, 1)"></rect><path d="M81 700L781 0L1016.5 0L316.5 700z" fill="url(#SvgjsLinearGradient1010)"></path><path d="M531.2 700L1231.2 0L1510.2 0L810.2 700z" fill="url(#SvgjsLinearGradient1010)"></path><path d="M1346 700L646 0L235 0L935 700z" fill="url(#SvgjsLinearGradient1011)"></path><path d="M875.8 700L175.79999999999995 0L-358.20000000000005 0L341.79999999999995 700z" fill="url(#SvgjsLinearGradient1011)"></path><path d="M919.0928354253484 700L1440 179.09283542534843L1440 700z" fill="url(#SvgjsLinearGradient1010)"></path><path d="M0 700L520.9071645746516 700L 0 179.09283542534843z" fill="url(#SvgjsLinearGradient1011)"></path></g><defs><mask id="SvgjsMask1009"><rect width="1440" height="700" fill="#ffffff"></rect></mask><linearGradient x1="0%" y1="100%" x2="100%" y2="0%" id="SvgjsLinearGradient1010"><stop stop-color="rgba(211, 74, 4, 1)" offset="0"></stop><stop stop-opacity="0" stop-color="rgba(211, 74, 4, 1)" offset="0.66"></stop></linearGradient><linearGradient x1="100%" y1="100%" x2="0%" y2="0%" id="SvgjsLinearGradient1011"><stop stop-color="rgba(211, 74, 4, 1)" offset="0"></stop><stop stop-opacity="0" stop-color="rgba(211, 74, 4, 1)" offset="0.66"></stop></linearGradient></defs></svg>